<svg width="150" height="44" viewBox="0 0 150 44" xmlns="http://www.w3.org/2000/svg"><path d="M0 17.173V20.6076H3.20928V17.173H0Z"></path><path d="M15.207 6.03917C13.1698 6.03917 11.5233 6.98369 10.4908 8.35752H10.3792V0H7.72801V20.6076H10.3792V13.538C10.3792 10.7045 12.1094 8.67236 14.6489 8.67236C17.0489 8.67236 18.4442 10.5041 18.4442 12.9656V20.6076H21.0954V12.479C21.0954 8.55788 18.7233 6.03917 15.207 6.03917Z"></path><path d="M34.7542 6.43987H28.4752V1.43108H25.824V6.43987H23.3124V9.07307H25.824V17.0585C25.824 19.3482 27.0799 20.6076 29.3403 20.6076H34.7542V17.9458H29.8705C28.9775 17.9458 28.4752 17.4306 28.4752 16.5433V9.07307H34.7542V6.43987Z"></path><path d="M53.6927 6.06779C51.5718 6.06779 49.9532 7.12679 49.0602 8.81547H48.9764C48.1672 7.15542 46.6602 6.06779 44.5951 6.06779C42.7532 6.06779 41.3579 7.06955 40.5207 8.47201H40.4091V6.43987H37.8695V20.6076H40.5207V13.3377C40.5207 10.6759 41.8881 8.72961 43.9532 8.67236C45.9067 8.61512 47.0509 10.0462 47.0509 12.1928V20.6076H49.702V13.1087C49.702 9.93172 51.5439 8.67236 53.1346 8.67236C55.0601 8.67236 56.2043 10.0462 56.2043 12.1928V20.6076H58.8555V11.9066C58.8555 8.47201 56.9578 6.06779 53.6927 6.06779Z"></path><path d="M62.4482 16.944C62.4482 19.2624 63.732 20.6076 66.104 20.6076H68.7273V17.9744H66.4947C65.6017 17.9744 65.0994 17.4592 65.0994 16.5719V0H62.4482V16.944Z"></path><path d="M37.7416 26.2734H37.6297C36.5953 24.8508 34.9179 23.8549 32.6814 23.8264C28.5717 23.7695 25.6362 26.871 25.6362 31.2528C25.6362 35.6631 28.6276 38.7645 32.6534 38.7076C34.9459 38.6792 36.5953 37.6264 37.6297 36.1184H37.7416V38.3093H40.3695V24.2248H37.7416V26.2734ZM33.0448 36.0899C30.1373 36.0899 28.2921 33.9274 28.2921 31.2528C28.2921 28.5782 30.1373 26.4157 33.0448 26.4157C35.8685 26.4157 37.7136 28.5782 37.7136 31.2528C37.7136 33.899 35.8685 36.0899 33.0448 36.0899Z"></path><path d="M57.7248 29.3464C57.0818 26.1596 54.3141 23.8264 50.6797 23.8264C46.2905 23.8264 43.355 27.0986 43.355 31.2528C43.355 35.407 46.2905 38.7076 50.6797 38.7076C54.3141 38.7076 57.0818 36.3175 57.7248 33.1023H54.9571C54.398 34.8949 52.7485 36.1184 50.7077 36.1184C47.8561 36.1184 46.0109 33.9274 46.0109 31.2528C46.0109 28.5782 47.8561 26.4157 50.7077 26.4157C52.8324 26.4157 54.398 27.6961 54.9571 29.3464H57.7248Z"></path><path d="M71.9232 26.2734H71.8114C70.777 24.8508 69.0996 23.8549 66.863 23.8264C62.7534 23.7695 59.8179 26.871 59.8179 31.2528C59.8179 35.6631 62.8093 38.7645 66.8351 38.7076C69.1276 38.6792 70.777 37.6264 71.8114 36.1184H71.9232V38.3093H74.5512V24.2248H71.9232V26.2734ZM67.2265 36.0899C64.319 36.0899 62.4738 33.9274 62.4738 31.2528C62.4738 28.5782 64.319 26.4157 67.2265 26.4157C70.0501 26.4157 71.8953 28.5782 71.8953 31.2528C71.8953 33.899 70.0501 36.0899 67.2265 36.0899Z"></path><path d="M89.642 26.4157H89.5302C88.4958 24.9077 86.7625 23.8549 84.5539 23.8264C80.5281 23.7695 77.5367 26.871 77.5367 31.2813C77.5367 35.6631 80.4722 38.7645 84.5818 38.7076C86.7625 38.6792 88.4958 37.6833 89.5022 36.2606H89.642V38.3093H92.27V17.8228H89.642V26.4157ZM84.9453 36.1184C82.0377 36.1184 80.1926 33.9559 80.1926 31.2813C80.1926 28.6066 82.0377 26.4442 84.9453 26.4442C87.7689 26.4442 89.6141 28.6351 89.6141 31.2813C89.6141 33.9559 87.7689 36.1184 84.9453 36.1184Z"></path><path d="M102.276 23.8264C98.0265 23.8264 95.1189 27.1555 95.1189 31.2813C95.1189 35.2932 97.8587 38.7076 102.332 38.7076C105.575 38.7076 108.175 36.9151 109.097 33.9274H106.33C105.715 35.2647 104.233 36.1184 102.444 36.1184C99.9275 36.1184 98.1383 34.4111 97.9426 32.2202H109.377C109.74 27.5254 106.861 23.8264 102.276 23.8264ZM102.22 26.4157C104.429 26.4157 106.078 27.8099 106.497 29.8301H97.9985C98.3899 27.8384 100.039 26.4157 102.22 26.4157Z"></path><path d="M128.219 23.8549C126.094 23.8549 124.473 24.9077 123.578 26.5864H123.494C122.683 24.9361 121.174 23.8549 119.105 23.8549C117.26 23.8549 115.862 24.8508 115.023 26.245H114.911V24.2248H112.367V38.3093H115.023V31.0821C115.023 28.4359 116.393 26.5011 118.462 26.4442C120.419 26.3873 121.565 27.8099 121.565 29.9439V38.3093H124.221V30.8545C124.221 27.6961 126.066 26.4442 127.66 26.4442C129.589 26.4442 130.735 27.8099 130.735 29.9439V38.3093H133.391V29.6594C133.391 26.245 131.49 23.8549 128.219 23.8549Z"></path><path d="M142.899 36.0614L138.146 24.2248H135.211L141.529 39.6466L141.501 39.7035C141.054 40.8701 140.55 41.2969 139.32 41.2969H136.049V44H139.32C141.725 44 143.011 42.8903 143.905 40.5002L150 24.2248H147.288L142.899 36.0614Z"></path></svg>